<?xml version="1.0" standalone="no"?><!DOCTYPE svg PUBLIC "-//W3C//DTD SVG 1.1//EN" "http://www.w3.org/Graphics/SVG/1.1/DTD/svg11.dtd"><svg t="1519442788584" class="icon" style="" viewBox="0 0 1024 1024" version="1.1" xmlns="http://www.w3.org/2000/svg" p-id="14571" xmlns:xlink="http://www.w3.org/1999/xlink" width="28" height="28"><defs><style type="text/css"></style></defs><path d="M879.50456 283.271622 739.694327 143.428643c-16.109909-16.10684-37.804001-25.338085-59.435671-25.338085-19.027355 0-36.579103 7.064906-49.389874 19.859303l-466.3718 466.420919c-0.784876 0.815575-1.319042 1.822508-1.538029 2.888793-0.12689 0.344854-0.252757 0.687662-0.315178 1.034563l-45.275159 263.927041c-2.479471 9.166777 0.157589 19.086707 6.90834 25.932626 5.02341 5.024433 11.678994 7.754614 18.774599 7.754614 2.38635 0 4.773723-0.280386 6.53074-0.815575l263.422552-45.183062c1.821485 0.408299 4.081968 0 5.588275-1.474584l466.341101-466.324728c12.811794-12.827143 19.874653-30.393217 19.874653-49.450249C904.808876 320.994782 895.578654 299.347762 879.50456 283.271622M175.485245 847.414189l30.894637-193.058994 161.632237 161.567769L175.485245 847.414189zM756.079506 438.797791 411.184385 783.771707 239.189126 611.746772l345.558224-345.538781L756.079506 438.797791zM627.512339 223.444025l44.393069-44.364417c7.346315-7.394411 21.601994-6.436596 30.077016 2.056845l139.812279 139.794883c4.367471 4.396123 6.970762 9.985422 7.255241 15.809057 0.312108 5.605671-1.538029 10.644431-5.213745 14.317077l-44.928259 44.945655L627.512339 223.444025z" p-id="14572" fill="#956bff"></path></svg>