<?xml version="1.0" standalone="no"?><!DOCTYPE svg PUBLIC "-//W3C//DTD SVG 1.1//EN" "http://www.w3.org/Graphics/SVG/1.1/DTD/svg11.dtd"><svg t="1519442771885" class="icon" style="" viewBox="0 0 1024 1024" version="1.1" xmlns="http://www.w3.org/2000/svg" p-id="14343" xmlns:xlink="http://www.w3.org/1999/xlink" width="28" height="28"><defs><style type="text/css"></style></defs><path d="M442.514951 694.652993l-69.736271 0c-21.537526 0-38.343283 13.420661-38.343283 30.526247 0.119727 17.133216 16.895809 30.552853 38.343283 30.552853l69.736271 0c21.538549 0 38.314631-13.419637 38.314631-30.552853C480.829582 708.074677 464.0535 694.652993 442.514951 694.652993" p-id="14344" fill="#956bff"></path><path d="M897.181151 793.267988 897.181151 170.806177c0.091074-27.094078-23.125697-49.171909-51.613518-49.171909l-202.768123 0c-24.535813 0-45.892213 16.894785-50.835805 40.125883-7.819083 36.739762-42.116213 63.371306-81.688487 63.371306-39.482223 0-73.92978-26.631544-81.659835-63.311954-4.972245-23.290449-26.299993-40.245609-50.834782-40.245609L175.237605 121.573893c-28.563546 0-51.77827 22.137183-51.77827 49.142234l0 660.443867c0 0.182149 0.089028 0.298805 0.089028 0.451278l0 21.627577c0 27.198455 23.276123 49.185212 51.780317 49.185212l670.180626 0c28.547173 0 51.763944-21.986757 51.763944-49.185212l0-59.522652C897.272225 793.567817 897.181151 793.447067 897.181151 793.267988M813.666062 852.370061 214.060819 852.370061c-28.683273 0-38.643112-9.046027-38.643112-37.623899l0-21.089317c0-0.149403-0.089028-0.329505-0.089028-0.478907l0-38.193881c1.587148 0.182149 2.964518 0.748037 4.627391 0.748037l69.752644 0c21.537526 0 38.416961-13.389962 38.297234-30.552853 0-17.105586-16.759709-30.526247-38.297234-30.526247l-69.752644 0c-1.662873 0-3.040243 0.601704-4.627391 0.748037L175.328679 196.912765c0-14.334473 11.683087-26.01756 26.030863-25.926486l157.252487 0.523933c10.723226 0 20.398586 6.680143 23.994484 16.685008 18.632359 50.834782 69.736271 86.376253 127.669728 86.376253 58.053184 0 109.217471-35.361369 127.671775-86.810135 3.624551-10.020214 13.387915-16.715707 24.202215-16.715707l157.207461 0c14.320147 0 25.973558 11.622712 25.973558 25.957185L845.331249 695.851285c-2.518357-0.387833-4.885264-1.198292-7.552-1.198292l-69.614497 0c-21.538549 0-38.313607 13.420661-38.313607 30.526247 0 17.162892 16.776082 30.552853 38.313607 30.552853l69.614497 0c2.665713 0 5.033643-0.806365 7.552-1.198292l0 51.613518C844.878948 832.480059 840.53706 852.370061 813.666062 852.370061" p-id="14345" fill="#956bff"></path><path d="M640.252501 694.652993l-69.556169 0c-21.567201 0-38.313607 13.420661-38.313607 30.526247 0 17.133216 16.746406 30.552853 38.313607 30.552853l69.556169 0c21.3871 0 38.312584-13.419637 38.312584-30.552853C678.476057 708.074677 661.700999 694.652993 640.252501 694.652993" p-id="14346" fill="#956bff"></path><path d="M529.386484 643.73123l1.109264 0 0-89.627297 84.174098 0 6.591115-0.119727 0-1.048889c8.746198-2.816139 15.09786-10.993378 15.09786-20.699438 0-11.95324-9.735735-21.687952-21.688975-21.687952L530.495748 510.547929l0-33.43039 84.174098 0 6.591115-0.119727 0-1.048889c8.746198-2.815115 15.09786-11.007705 15.09786-20.699438 0-11.967566-9.735735-21.686928-21.688975-21.686928L530.495748 433.562557l0-18.438954 88.00945-86.286202 4.223185-4.328585-0.418532-0.494257c1.827625-2.935865 2.876514-6.350638 3.14462-9.930163 0.361227-5.796006-1.616824-11.383258-5.481851-15.771195-7.577582-8.581446-21.626553-9.779737-30.883381-1.617847l-79.951937 78.887698-84.654029-83.096557c-8.627495-7.638981-23.067368-6.815219-30.615275 1.812275-6.528694 7.323802-7.160073 17.912975-2.216481 25.88146l-0.478907 0.585331 95.797833 93.685729 0 19.111267-84.175121 0-6.589069 0.059352 0 1.033539c-8.746198 2.831488-15.096836 11.024078-15.096836 20.684088 0 9.630335 6.350638 17.853623 15.096836 20.669762l0 1.108241 90.765213 0 0 33.43039-90.765213 0.060375 0 1.019213c-8.746198 2.785439-15.096836 11.023054-15.096836 20.667715 0 9.67536 6.350638 17.884322 15.096836 20.699438l0 1.110287 90.765213 0 0 83.036181 0.060375 6.591115 1.01819 0c2.816139 8.715499 11.05273 15.06716 20.669762 15.06716C518.394129 658.797367 526.572392 652.445706 529.386484 643.73123" p-id="14347" fill="#956bff"></path></svg>