<?xml version="1.0" standalone="no"?><!DOCTYPE svg PUBLIC "-//W3C//DTD SVG 1.1//EN" "http://www.w3.org/Graphics/SVG/1.1/DTD/svg11.dtd"><svg t="1519442742137" class="icon" style="" viewBox="0 0 1024 1024" version="1.1" xmlns="http://www.w3.org/2000/svg" p-id="14114" xmlns:xlink="http://www.w3.org/1999/xlink" width="28" height="28"><defs><style type="text/css"></style></defs><path d="M307.728128 291.535843c-14.691607 0-26.688849 11.981892-26.688849 26.688849l0 400.143423c0 56.547901 50.919716 108.000759 106.875123 108.000759l274.79967-0.267083 7.582699-0.592494 0-1.954515c9.568936-4.058432 15.966647-13.240559 15.966647-23.846104 0-10.663874-6.39771-19.905352-15.966647-23.992437l0-2.548032L375.91716 773.168208c-20.319791 0-42.063001-32.169677-42.063001-54.800094l-0.029676-396.130016c0.236384-0.858554 0.681522-2.28095 0.681522-4.013407C334.507028 303.517735 322.48011 291.535843 307.728128 291.535843" p-id="14115" fill="#956bff"></path><path d="M707.768197 827.435159c-10.07138 0-18.839067 6.220678-22.512736 15.581883l-1.094938 2.221598c-17.151635 34.834366-29.474288 29.828352-42.35976 28.791743-3.406586-0.236384-6.842849-0.473791-10.396791-0.473791L263.79964 873.556593c-21.712511 0-54.000891-32.790824-54.000891-54.769394L209.798748 338.944596c0-19.920702 26.038026-49.231261 47.217395-53.111638l6.220678-1.703805 0-0.089028c10.663874-3.539616 18.246573-13.493316 18.246573-25.208125 0-11.434423-7.286963-21.224394-17.624403-24.89704l0.384763-3.52529-8.590656 1.732457-0.88823 0c-1.777483 0-3.198855 0.400113-4.14746 0.696872-51.630914 5.317099-93.663216 52.933583-93.663216 106.104573l0 479.841579c0 56.487525 50.949392 107.940384 106.845447 107.940384l372.343263 0c51.127448 0 81.815377-21.090341 93.189426-62.946634 2.103918-3.90903 3.110851-7.671727 3.110851-11.522428C732.444203 838.544171 721.36589 827.435159 707.768197 827.435159" p-id="14116" fill="#956bff"></path><path d="M462.41314 500.546134l223.346811 0c17.86181 0 32.406061-13.981433 32.406061-31.17707 0-17.254989-14.544251-31.280424-32.406061-31.280424l-223.346811 0c-17.921161 0-32.465412 14.026458-32.465412 31.280424C429.947727 486.564701 444.491978 500.546134 462.41314 500.546134" p-id="14117" fill="#956bff"></path><path d="M691.506838 111.89444l-2.251274-2.606361-3.495614 0c-3.080152 0-297.845549-0.814552-297.875225-0.814552-52.903907 0-99.053993 40.033785-105.156992 91.056855-0.207731 0.903579-0.592494 2.207271-0.592494 4.294816l0.059352 7.583722 1.184989 0c3.37691 10.871605 13.566994 18.809391 25.415856 18.809391 13.685697 0 25.119097-10.56052 26.541493-23.934109l0.177032-0.666172c5.095042-20.779256 22.927175-43.943838 40.404222-43.943838L640.439766 161.674193c-0.267083 54.992475 0.059352 105.615433 0.059352 105.615433 0 56.932664 38.123272 95.144964 94.877881 95.144964l78.882582 0 0 356.022553c0.118704 15.996322-5.03569 29.680996-14.900362 39.603996-9.389858 9.478885-22.778796 15.077394-36.760229 15.077394l-0.029676 0-7.760754 0.089028 0 1.687432c-10.307763 3.643993-17.594727 13.477966-17.594727 24.76401 0 11.847839 8.027837 22.008246 19.135826 25.177426l0.236384 1.095961 7.019881 0.148379c1.629103 0 2.90312-0.325411 3.139503-0.533143 53.43705-3.821025 100.299357-53.911864 100.299357-107.170858l0-403.817092L691.506838 111.89444zM793.76071 309.812091l-58.384735 0c-20.439518 0-42.032302-43.973514-42.032302-67.611887L693.343673 188.096982 793.76071 309.812091z" p-id="14118" fill="#956bff"></path><path d="M462.41314 618.809631l223.346811 0c17.86181 0 32.406061-14.069437 32.406061-31.279401 0-17.240663-14.544251-31.222095-32.406061-31.222095l-223.346811 0c-17.921161 0-32.465412 13.981433-32.465412 31.222095C429.947727 604.740194 444.491978 618.809631 462.41314 618.809631" p-id="14119" fill="#956bff"></path></svg>