<?xml version="1.0" standalone="no"?><!DOCTYPE svg PUBLIC "-//W3C//DTD SVG 1.1//EN" "http://www.w3.org/Graphics/SVG/1.1/DTD/svg11.dtd"><svg t="1517470994294" class="icon" style="" viewBox="0 0 1024 1024" version="1.1" xmlns="http://www.w3.org/2000/svg" p-id="8061" xmlns:xlink="http://www.w3.org/1999/xlink" width="32" height="32"><defs><style type="text/css"></style></defs><path d="M841.530179 137.779993 366.132818 137.779993c-49.562812 0-89.855494 40.144302-89.855494 89.499383l0 131.069151-172.015725 99.067296-6.299473 4.189416 0.713244 1.218758 0.029676 0.118704c-3.922333 4.694929-6.062066 10.54824-6.062066 16.58063l0 275.063683c0 16.075117 12.063757 29.1499 26.891464 29.1499 14.857383 0 26.921139-13.103436 26.921139-29.238928L146.455583 494.973208l168.746262-97.373725c11.707646-4.130064 19.552312-15.124466 19.552312-27.336602L334.754157 231.587496c0-19.552312 16.015765-35.479049 35.68678-35.479049l466.750423 0c19.671015 0 35.68678 15.926738 35.68678 35.479049l0 512.034792c0 16.104793 13.104459 29.179576 29.238928 29.179576 16.134469 0 29.238928-13.104459 29.238928-29.238928L931.355997 227.278353C931.355997 177.923272 891.063315 137.779993 841.530179 137.779993z" p-id="8062" fill="#777777"></path><path d="M741.957369 656.351666c-55.595202 0-102.900601 39.49041-112.973004 94.104261l-204.284663-0.118704c-10.132778-54.555523-57.437154-93.985558-112.973004-93.985558-63.647599 0-115.439172 51.554166-115.439172 114.934682s51.791573 114.934682 115.439172 114.934682c51.67287 0 97.194646-34.558074 111.071701-84.209914l208.117968 0.089028c13.906731 49.592488 59.398832 84.120886 111.042026 84.120886 63.647599 0 115.409496-51.554166 115.409496-114.934682S805.604968 656.351666 741.957369 656.351666zM741.957369 825.514413c-30.070876 0-54.525847-24.336268-54.525847-54.228065 0-29.892821 24.454972-54.228065 54.525847-54.228065s54.525847 24.336268 54.525847 54.228065C796.483216 801.178145 772.028245 825.514413 741.957369 825.514413zM311.726697 825.514413c-30.070876 0-54.525847-24.336268-54.525847-54.228065 0-29.892821 24.454972-54.228065 54.525847-54.228065 30.0412 0 54.496172 24.336268 54.496172 54.228065C366.221846 801.178145 341.766874 825.514413 311.726697 825.514413z" p-id="8063" fill="#777777"></path><path d="M224.930889 573.151755c0 15.540951 12.687974 28.199249 28.317952 28.199249l109.526509-0.029676c15.421224 0 27.575032-4.605901 36.162618-13.727653 13.638625-14.470573 12.539594-35.003212 12.509918-35.121915l0-85.814458c0-15.540951-12.687974-28.199249-28.317952-28.199249s-28.317952 12.658298-28.317952 28.199249l0.029676 78.2072-101.652168 0C237.589187 544.952506 224.930889 557.64048 224.930889 573.151755z" p-id="8064" fill="#777777"></path></svg>