<?xml version="1.0" standalone="no"?><!DOCTYPE svg PUBLIC "-//W3C//DTD SVG 1.1//EN" "http://www.w3.org/Graphics/SVG/1.1/DTD/svg11.dtd"><svg t="1517471026955" class="icon" style="" viewBox="0 0 1024 1024" version="1.1" xmlns="http://www.w3.org/2000/svg" p-id="8647" xmlns:xlink="http://www.w3.org/1999/xlink" width="32" height="32"><defs><style type="text/css"></style></defs><path d="M600.139409 523.040451l7.701402-0.150426 0-1.203408c10.16757-3.278673 17.568121-12.844539 17.568121-24.125467 0-13.957897-11.341303-25.299199-25.2685-25.299199l-98.127901 0 0-21.478174 102.609982-100.624768 4.872984-5.02341-0.451278-0.572028c2.105964-3.459798 3.368724-7.40055 3.6399-11.58178 0.421602-6.768147-1.834788-13.295817-6.347568-18.410302-8.844435-9.987468-25.238824-11.400654-36.008099-1.865487l-93.253894 91.960435-98.698906-96.864118c-10.017144-8.904811-26.862811-7.941879-35.707246 2.105964-7.610328 8.543583-8.332782 20.87647-2.557242 30.172183l-0.541329 0.691755L451.233008 449.971271l0 22.290679-98.127901 0-7.701402 0.090051 0 1.203408c-10.16757 3.278673-17.568121 12.844539-17.568121 24.095791s7.40055 20.817118 17.568121 24.095791l0 1.293459 105.82828 0 0 38.98592-105.82828 0.060375 0 1.203408c-10.19827 3.248997-17.597797 12.814864-17.597797 24.095791s7.40055 20.846794 17.597797 24.125467l0 1.293459 105.82828 0 0 96.803743 0.090051 7.701402 1.203408 0c3.278673 10.16757 12.844539 17.568121 24.095791 17.568121s20.817118-7.40055 24.095791-17.568121l1.293459 0L502.010485 612.805894l98.127901 0 7.701402-0.150426 0-1.203408c10.16757-3.278673 17.568121-12.844539 17.568121-24.125467 0-13.957897-11.341303-25.299199-25.2685-25.299199l-98.127901 0 0-38.98592L600.139409 523.041474z" p-id="8648" fill="#777777"></path><path d="M955.443601 474.882638c-10.555403-10.730389-27.740808-10.818393-38.412868-0.323365l-25.203008 24.800849C885.08516 275.592732 702.013635 96.145757 476.613048 96.145757c-229.670843 0-415.854243 186.185446-415.854243 415.854243 0 229.670843 186.1834 415.854243 415.854243 415.854243 127.552048 0 241.064334-57.961086 317.331345-148.385539 3.13234-2.357697 5.696746-5.206582 7.632841-8.638751 0.379647-0.477884 0.832971-0.8913 1.210571-1.370207l-0.208754-0.116657c1.796926-3.727904 2.998287-7.776104 2.998287-12.192693 0-15.684214-12.715603-28.40084-28.40084-28.40084-10.070356 0-18.495236 5.542226-23.539112 13.44522-66.165955 79.488379-165.761278 130.213667-277.025361 130.213667-198.729134 0-360.40742-161.678286-360.40742-360.40742 0-198.72811 161.678286-360.405373 360.40742-360.405373s360.40742 161.678286 360.40742 360.405373c0 1.297552-0.12996 2.562359-0.148379 3.853771l-41.003879-41.11849c-10.583033-10.583033-27.799136-10.641361-38.442544-0.058328-10.611685 10.611685-10.641361 27.799136-0.058328 38.441521l75.026764 75.233472c5.305843 5.305843 12.294001 7.988951 19.250436 7.988951 0.167822 0 0.323365-0.092098 0.491187-0.096191 2.099824 0.509606 4.169973 1.246387 6.318916 1.246387 6.868431 0 13.766538-2.62478 19.043728-7.81192l77.620845-76.383668C965.819926 502.771825 965.966259 485.555721 955.443601 474.882638z" p-id="8649" fill="#777777"></path></svg>